<svg xmlns="http://www.w3.org/2000/svg" viewBox="0 0 100 100" width="100" height="100" role="img" aria-label="Shoku"><defs><linearGradient id="gM" x1="0" y1="0" x2="0" y2="1"><stop offset="0" stop-color="#3a805e"/><stop offset="1" stop-color="#234c38"/></linearGradient></defs><rect x="2" y="2" width="96" height="96" rx="24" fill="url(#gM)"/><g transform="translate(18,18) scale(0.64)"><circle cx="50" cy="50" r="34" fill="none" stroke="#f4f1ea" stroke-width="6" stroke-linecap="round" stroke-dasharray="183.6 30" transform="rotate(-120 50 50)"/><path d="M51.2 50.0 L51.5 50.2 L51.7 50.5 L51.9 50.8 L52.0 51.2 L52.0 51.6 L52.0 52.1 L51.8 52.6 L51.6 53.1 L51.2 53.5 L50.8 53.9 L50.3 54.3 L49.7 54.5 L49.0 54.7 L48.3 54.8 L47.5 54.8 L46.7 54.6 L45.9 54.3 L45.1 53.9 L44.4 53.3 L43.8 52.7 L43.2 51.9 L42.7 50.9 L42.4 49.9 L42.2 48.9 L42.1 47.7 L42.3 46.6 L42.6 45.4 L43.1 44.2 L43.7 43.1 L44.6 42.1 L45.6 41.2 L46.7 40.4 L48.0 39.8 L49.4 39.3 L50.9 39.1 L52.4 39.0 L54.0 39.2 L55.6 39.6 L57.1 40.2 L58.6 41.1 L59.9 42.2 L61.2 43.4 L62.2 44.9 L63.1 46.6 L63.7 48.3 L64.1 50.2 L64.2 52.2 L64.0 54.2 L63.6 56.2 L62.8 58.1 L61.8 60.0 L60.5 61.7 L59.0 63.3 L57.2 64.6 L55.2 65.7 L53.1 66.6 L50.8 67.1 L48.5 67.3 L46.0 67.2 L43.6 66.8 L41.3 66.0 L39.0 64.9 L36.9 63.5 L34.9 61.7 L33.2 59.7 L31.8 57.4 L30.7 54.9 L29.9 52.3 L29.5 49.5 L29.5 46.7 L29.9 43.8 L30.7 41.0 L31.8 38.3 L33.4 35.8 L35.3 33.4 L37.6 31.3 L40.1 29.6 L42.9 28.1" fill="none" stroke="#d9774e" stroke-width="4.2" stroke-linecap="round"/><circle cx="78" cy="30" r="4.5" fill="#f4f1ea"/></g></svg>
